# Blender v2.74 (sub 0) OBJ File: 'BLENDER Exit Sign.blend'
# www.blender.org
mtllib BLENDER Exit Sign.mtl
o Weltabschnitt_Kanalgang_Gerade_Cube.001
v -0.198956 0.255336 0.042405
v -0.198956 0.391612 0.042405
v -0.198956 0.255336 -0.042405
v -0.198956 0.391612 -0.042405
v 0.198956 0.255336 0.042405
v 0.198956 0.391612 0.042405
v 0.198956 0.255336 -0.042405
v 0.198956 0.391612 -0.042405
vt 0.823930 0.175740
vt 0.823930 0.457861
vt 0.000165 0.457862
vt 0.000165 0.915888
vt 0.000165 0.633766
vt 0.823930 0.633767
vt 0.000165 0.175740
vt 0.823930 0.915888
vt 0.824260 0.564738
vt 0.824260 0.282617
vt 0.999835 0.282617
vt 0.824260 0.282287
vt 0.824260 0.000165
vt 0.999835 0.000165
vt 0.823930 0.633437
vt 0.000165 0.000165
vt 0.999835 0.564738
vt 0.999835 0.282287
vt 0.000165 0.633437
vt 0.823930 0.000165
vn 0.000000 0.000000 -1.000000
vn 0.000000 0.000000 1.000000
vn -1.000000 0.000000 0.000000
vn 1.000000 0.000000 0.000000
vn 0.000000 -1.000000 0.000000
vn 0.000000 1.000000 0.000000
usemtl Längsseiten
s off
f 8/1/1 7/2/1 3/3/1
f 2/4/2 1/5/2 5/6/2
f 4/7/1 8/1/1 3/3/1
f 6/8/2 2/4/2 5/6/2
usemtl Rahmen
f 4/9/3 3/10/3 1/11/3
f 6/12/4 5/13/4 7/14/4
f 3/3/5 7/2/5 5/15/5
f 8/1/6 4/7/6 2/16/6
f 2/17/3 4/9/3 1/11/3
f 8/18/4 6/12/4 7/14/4
f 1/19/5 3/3/5 5/15/5
f 6/20/6 8/1/6 2/16/6
