# Blender v2.74 (sub 0) OBJ File: 'BLENDER DeckeGulliEckig.blend'
# www.blender.org
mtllib BLENDER DeckeGulliEckig.mtl
o DeckeMitGulliEckig_Plane
v -0.651356 0.021548 0.496595
v -1.000000 0.000000 1.000000
v 1.000000 0.000000 1.000000
v 1.000000 0.000000 -1.000000
v 0.651356 0.021548 -0.526758
v 0.651356 0.021548 0.496595
v -0.651356 0.021548 -0.526758
v -1.000000 0.000000 -1.000000
v -1.000000 -0.010000 -1.000000
v -1.000000 -0.010000 1.000000
v 1.000000 -0.010000 1.000000
v 1.000000 -0.010000 -1.000000
v -0.651356 -0.031548 0.496595
v 0.651356 -0.031548 -0.526758
v -0.651356 -0.031548 -0.526758
v 0.651356 -0.031548 0.496595
v -0.470983 0.021548 -0.368110
v -0.556629 0.021548 -0.368110
v -0.556629 0.021548 0.371515
v -0.470983 0.021548 0.371515
v -0.385360 0.021548 -0.368110
v -0.385360 0.021548 0.371515
v -0.299714 0.021548 0.371515
v -0.299714 0.021548 -0.368110
v 0.385360 0.021548 -0.368110
v 0.299715 0.021548 -0.368110
v 0.299715 0.021548 0.371515
v 0.385360 0.021548 0.371515
v -0.042823 0.021548 0.371515
v 0.042823 0.021548 0.371515
v 0.042823 0.021548 -0.368110
v -0.042823 0.021548 -0.368110
v 0.128446 0.021548 -0.368110
v 0.128446 0.021548 0.371515
v 0.214091 0.021548 0.371515
v 0.214091 0.021548 -0.368110
v -0.214091 0.021548 0.371515
v -0.128446 0.021548 0.371515
v -0.128446 0.021548 -0.368110
v -0.214091 0.021548 -0.368110
v -0.467687 0.021548 0.374812
v -0.388656 0.021548 0.374812
v -0.388656 0.021548 -0.371406
v -0.296418 0.021548 -0.371406
v -0.296418 0.021548 0.374812
v -0.217387 0.021548 0.374812
v -0.217387 0.021548 -0.371406
v -0.125150 0.021548 -0.371406
v -0.125150 0.021548 0.374812
v -0.046119 0.021548 0.374812
v -0.046119 0.021548 -0.371406
v 0.046119 0.021548 -0.371406
v 0.046119 0.021548 0.374812
v 0.125150 0.021548 0.374812
v 0.125150 0.021548 -0.371406
v 0.217387 0.021548 -0.371406
v 0.217387 0.021548 0.374812
v 0.296418 0.021548 0.374812
v 0.296418 0.021548 -0.371406
v 0.388656 0.021548 -0.371406
v 0.388656 0.021548 0.374812
v 0.467687 0.021548 0.374812
v 0.467687 0.021548 -0.371406
v 0.559925 0.021548 -0.371406
v 0.647320 0.021548 -0.522721
v -0.647320 0.021548 -0.522721
v -0.647320 0.021548 0.492558
v -0.559925 0.021548 0.374812
v -0.559925 0.021548 -0.371406
v -0.467687 0.021548 -0.371406
v 0.647320 0.021548 0.492558
v 0.559925 0.021548 0.374812
v 0.556629 0.021548 -0.368110
v 0.470983 0.021548 -0.368110
v 0.470983 0.021548 0.371515
v 0.556629 0.021548 0.371515
v 0.214091 -0.031548 0.371515
v 0.128446 -0.031548 0.371515
v 0.128446 -0.031548 -0.368110
v 0.214091 -0.031548 -0.368110
v -0.470983 -0.031548 -0.368110
v -0.470983 -0.031548 0.371515
v -0.556629 -0.031548 0.371515
v -0.556629 -0.031548 -0.368110
v -0.385360 -0.031548 0.371515
v -0.385360 -0.031548 -0.368110
v -0.299714 -0.031548 -0.368110
v -0.299714 -0.031548 0.371515
v -0.214091 -0.031548 -0.368110
v -0.128446 -0.031548 -0.368110
v -0.128446 -0.031548 0.371515
v -0.214091 -0.031548 0.371515
v 0.042823 -0.031548 0.371515
v -0.042823 -0.031548 0.371515
v -0.042823 -0.031548 -0.368110
v 0.042823 -0.031548 -0.368110
v 0.385360 -0.031548 0.371515
v 0.299715 -0.031548 0.371515
v 0.299715 -0.031548 -0.368110
v 0.385360 -0.031548 -0.368110
v 0.556629 -0.031548 -0.368110
v 0.556629 -0.031548 0.371515
v 0.470983 -0.031548 0.371515
v 0.470983 -0.031548 -0.368110
v -0.467687 -0.031548 0.374812
v -0.388656 -0.031548 0.374812
v -0.296418 -0.031548 0.374812
v -0.217387 -0.031548 0.374812
v -0.125150 -0.031548 0.374812
v -0.046119 -0.031548 0.374812
v 0.046119 -0.031548 0.374812
v 0.125150 -0.031548 0.374812
v 0.217387 -0.031548 0.374812
v 0.296418 -0.031548 0.374812
v 0.388656 -0.031548 0.374812
v 0.467687 -0.031548 0.374812
v 0.559925 -0.031548 0.374812
v 0.559925 -0.031548 -0.371406
v 0.647320 -0.031548 -0.522721
v 0.647320 -0.031548 0.492558
v -0.647320 -0.031548 0.492558
v -0.559925 -0.031548 0.374812
v -0.467687 -0.031548 -0.371406
v -0.559925 -0.031548 -0.371406
v -0.647320 -0.031548 -0.522721
v 0.467687 -0.031548 -0.371406
v 0.388656 -0.031548 -0.371406
v 0.296418 -0.031548 -0.371406
v 0.217387 -0.031548 -0.371406
v 0.125150 -0.031548 -0.371406
v 0.046119 -0.031548 -0.371406
v -0.046119 -0.031548 -0.371406
v -0.125150 -0.031548 -0.371406
v -0.217387 -0.031548 -0.371406
v -0.296418 -0.031548 -0.371406
v -0.388656 -0.031548 -0.371406
vt 0.445034 0.000357
vt 0.731471 0.000357
vt 0.681538 0.072519
vt 0.050691 0.567824
vt 0.237264 0.567823
vt 0.287196 0.635671
vt 0.671827 0.736598
vt 0.671848 0.739273
vt 0.518534 0.739273
vt 0.518534 0.742662
vt 0.518512 0.739987
vt 0.671826 0.739987
vt 0.518534 0.746051
vt 0.518512 0.743376
vt 0.671826 0.743376
vt 0.598348 0.345729
vt 0.598370 0.348405
vt 0.445055 0.348405
vt 0.337936 0.563977
vt 0.287909 0.349637
vt 0.337936 0.417414
vt 0.811467 0.563574
vt 0.811467 0.417012
vt 0.861495 0.349235
vt 0.445034 0.328381
vt 0.445034 0.320776
vt 0.591597 0.320776
vt 0.445034 0.303428
vt 0.445034 0.295824
vt 0.631606 0.295824
vt 0.631606 0.287506
vt 0.631606 0.295110
vt 0.445034 0.295110
vt 0.591597 0.329094
vt 0.591597 0.336698
vt 0.445034 0.336698
vt 0.626098 0.669344
vt 0.626098 0.661740
vt 0.732025 0.661740
vt 0.243094 0.673603
vt 0.243094 0.665998
vt 0.255360 0.665998
vt 0.227514 0.669654
vt 0.227514 0.677258
vt 0.215248 0.677258
vt 0.732025 0.719963
vt 0.732025 0.727567
vt 0.626098 0.727567
vt 0.626098 0.719249
vt 0.626098 0.711645
vt 0.732025 0.711645
vt 0.250699 0.665285
vt 0.243094 0.665285
vt 0.243094 0.653019
vt 0.282263 0.653019
vt 0.282263 0.660623
vt 0.269997 0.660623
vt 0.624440 0.728280
vt 0.624440 0.735884
vt 0.518512 0.735884
vt 0.626098 0.661026
vt 0.626098 0.653422
vt 0.732025 0.653422
vt 0.277601 0.673603
vt 0.269997 0.673603
vt 0.269997 0.661337
vt 0.240493 0.661337
vt 0.240493 0.668941
vt 0.228227 0.668941
vt 0.732025 0.670057
vt 0.732025 0.677661
vt 0.626098 0.677661
vt 0.626098 0.702614
vt 0.626098 0.695010
vt 0.732025 0.695010
vt 0.243094 0.681920
vt 0.243094 0.674316
vt 0.255360 0.674316
vt 0.676899 0.636787
vt 0.676899 0.644391
vt 0.664633 0.644391
vt 0.732025 0.703327
vt 0.732025 0.710932
vt 0.626098 0.710932
vt 0.631163 0.311745
vt 0.631163 0.304141
vt 0.737090 0.304141
vt 0.660166 0.295110
vt 0.660166 0.287506
vt 0.672432 0.287506
vt 0.269284 0.661337
vt 0.269284 0.668941
vt 0.257018 0.668941
vt 0.737090 0.312459
vt 0.737090 0.320063
vt 0.631163 0.320063
vt 0.625153 0.735884
vt 0.625153 0.728280
vt 0.731081 0.728280
vt 0.228227 0.677258
vt 0.228227 0.669654
vt 0.240493 0.669654
vt 0.269284 0.669654
vt 0.269284 0.677258
vt 0.257018 0.677258
vt 0.732025 0.686692
vt 0.732025 0.694297
vt 0.626098 0.694297
vt 0.936276 0.865314
vt 0.999643 0.883495
vt 0.139833 0.652991
vt 0.000357 0.636384
vt 0.209818 0.636384
vt 0.376809 0.683695
vt 0.385400 0.690355
vt 0.432241 0.747158
vt 0.082280 0.057328
vt 0.444321 0.000357
vt 0.518512 0.694297
vt 0.518512 0.686692
vt 0.625384 0.686692
vt 0.270941 0.652306
vt 0.270941 0.644702
vt 0.284151 0.644702
vt 0.659453 0.287506
vt 0.659453 0.295110
vt 0.646243 0.295110
vt 0.625384 0.645104
vt 0.625384 0.652709
vt 0.518512 0.652709
vt 0.518512 0.685979
vt 0.518512 0.678375
vt 0.625384 0.678375
vt 0.215248 0.652306
vt 0.215248 0.644702
vt 0.228458 0.644702
vt 0.270228 0.644702
vt 0.270228 0.652306
vt 0.257018 0.652306
vt 0.625384 0.670057
vt 0.625384 0.677661
vt 0.518512 0.677661
vt 0.518512 0.727567
vt 0.518512 0.719963
vt 0.625384 0.719963
vt 0.257018 0.643988
vt 0.257018 0.636384
vt 0.270228 0.636384
vt 0.228458 0.636384
vt 0.228458 0.643988
vt 0.215248 0.643988
vt 0.699182 0.320776
vt 0.699182 0.328381
vt 0.592310 0.328381
vt 0.592310 0.336698
vt 0.592310 0.329094
vt 0.699182 0.329094
vt 0.215248 0.660623
vt 0.215248 0.653019
vt 0.228458 0.653019
vt 0.242381 0.653019
vt 0.242381 0.660623
vt 0.229171 0.660623
vt 0.625384 0.703327
vt 0.625384 0.710932
vt 0.518512 0.710932
vt 0.518512 0.702614
vt 0.518512 0.695010
vt 0.625384 0.695010
vt 0.229171 0.643988
vt 0.229171 0.636384
vt 0.242381 0.636384
vt 0.256305 0.636384
vt 0.256305 0.643988
vt 0.243095 0.643988
vt 0.625384 0.653422
vt 0.625384 0.661026
vt 0.518512 0.661026
vt 0.626098 0.652709
vt 0.626098 0.645104
vt 0.732969 0.645104
vt 0.270941 0.643988
vt 0.270941 0.636384
vt 0.284151 0.636384
vt 0.645529 0.287506
vt 0.645529 0.295110
vt 0.632319 0.295110
vt 0.625384 0.711645
vt 0.625384 0.719249
vt 0.518512 0.719249
vt 0.518512 0.669344
vt 0.518512 0.661740
vt 0.625384 0.661740
vt 0.229171 0.652306
vt 0.229171 0.644702
vt 0.242381 0.644702
vt 0.256305 0.644702
vt 0.256305 0.652306
vt 0.243094 0.652306
vt 0.698027 0.337412
vt 0.698027 0.345016
vt 0.591155 0.345016
vt 0.518512 0.644391
vt 0.518512 0.636787
vt 0.663920 0.636787
vt 0.445034 0.320063
vt 0.445034 0.312459
vt 0.630449 0.312459
vt 0.630449 0.304141
vt 0.630449 0.311745
vt 0.445034 0.311745
vt 0.590442 0.337412
vt 0.590442 0.345016
vt 0.445034 0.345016
vt 0.626098 0.685979
vt 0.626098 0.678375
vt 0.732025 0.678375
vt 0.215248 0.668941
vt 0.215248 0.661337
vt 0.227514 0.661337
vt 0.269284 0.653019
vt 0.269284 0.660623
vt 0.257018 0.660623
vt 0.738247 0.295824
vt 0.738247 0.303428
vt 0.632319 0.303428
vt 0.731849 0.286793
vt 0.681732 0.219082
vt 0.494966 0.072519
vt 0.000759 0.635671
vt 0.000357 0.349235
vt 0.050485 0.421261
vt 0.518512 0.736598
vt 0.671848 0.742662
vt 0.671848 0.746051
vt 0.445034 0.345729
vt 0.574345 0.349235
vt 0.524509 0.417152
vt 0.287909 0.636074
vt 0.575059 0.636049
vt 0.624895 0.563821
vt 0.861495 0.635671
vt 0.591597 0.328381
vt 0.631606 0.303428
vt 0.445034 0.287506
vt 0.445034 0.329094
vt 0.732025 0.669344
vt 0.255360 0.673603
vt 0.215248 0.669654
vt 0.626098 0.719963
vt 0.732025 0.719249
vt 0.250699 0.653019
vt 0.269997 0.653019
vt 0.518512 0.728280
vt 0.732025 0.661026
vt 0.277601 0.661337
vt 0.228227 0.661337
vt 0.626098 0.670057
vt 0.732025 0.702614
vt 0.255360 0.681920
vt 0.664633 0.636787
vt 0.626098 0.703327
vt 0.737090 0.311745
vt 0.672432 0.295110
vt 0.257018 0.661337
vt 0.631163 0.312459
vt 0.731081 0.735884
vt 0.240493 0.677258
vt 0.257018 0.669654
vt 0.626098 0.686692
vt 0.864248 0.773115
vt 0.873289 0.785790
vt 0.871790 0.865006
vt 0.881723 0.864336
vt 0.881723 0.349235
vt 0.936277 0.349235
vt 0.862208 0.880894
vt 0.936277 0.864336
vt 0.990788 0.867192
vt 0.072425 0.655147
vt 0.047110 0.655434
vt 0.107388 0.654242
vt 0.091968 0.654706
vt 0.129012 0.653419
vt 0.119422 0.653793
vt 0.149105 0.652623
vt 0.169198 0.651828
vt 0.159926 0.652195
vt 0.189291 0.651032
vt 0.180019 0.651399
vt 0.203579 0.738149
vt 0.200112 0.650604
vt 0.214534 0.755495
vt 0.014496 0.655434
vt 0.287909 0.642874
vt 0.307137 0.636787
vt 0.318408 0.643142
vt 0.495547 0.645871
vt 0.517799 0.636787
vt 0.328091 0.648600
vt 0.338818 0.655608
vt 0.347994 0.661667
vt 0.358153 0.669303
vt 0.366783 0.675923
vt 0.395426 0.698127
vt 0.404017 0.704787
vt 0.414044 0.712560
vt 0.422636 0.719220
vt 0.432663 0.726993
vt 0.084498 0.055144
vt 0.057140 0.055355
vt 0.057118 0.052458
vt 0.083124 0.057290
vt 0.083108 0.056641
vt 0.084522 0.056593
vt 0.084476 0.052247
vt 0.000357 0.000357
vt 0.030327 0.052247
vt 0.030327 0.308143
vt 0.000357 0.348521
vt 0.082295 0.057219
vt 0.084571 0.058041
vt 0.416491 0.049481
vt 0.083157 0.058089
vt 0.083152 0.057939
vt 0.082353 0.057973
vt 0.082243 0.057225
vt 0.625384 0.694297
vt 0.284151 0.652306
vt 0.646243 0.287506
vt 0.518512 0.645104
vt 0.625384 0.685979
vt 0.228458 0.652306
vt 0.257018 0.644702
vt 0.518512 0.670057
vt 0.625384 0.727567
vt 0.270228 0.643988
vt 0.215248 0.636384
vt 0.592310 0.320776
vt 0.699182 0.336698
vt 0.228458 0.660623
vt 0.229171 0.653019
vt 0.518512 0.703327
vt 0.625384 0.702614
vt 0.242381 0.643988
vt 0.243095 0.636384
vt 0.518512 0.653422
vt 0.732969 0.652709
vt 0.284151 0.643988
vt 0.632319 0.287506
vt 0.518512 0.711645
vt 0.625384 0.669344
vt 0.242381 0.652306
vt 0.243094 0.644702
vt 0.591155 0.337412
vt 0.663920 0.644391
vt 0.630449 0.320063
vt 0.445034 0.304141
vt 0.445034 0.337412
vt 0.732025 0.685979
vt 0.227514 0.668941
vt 0.257018 0.653019
vt 0.632319 0.295824
vn 0.000000 0.999100 0.042800
vn 0.000000 0.999000 -0.045500
vn -1.000000 0.000000 0.000000
vn 0.000000 0.000000 1.000000
vn 1.000000 0.000000 0.000000
vn 0.000000 0.000000 -1.000000
vn -0.061700 -0.998100 0.000000
vn 0.061700 -0.998100 0.000000
vn 0.000000 1.000000 0.000000
vn 0.000000 -1.000000 0.000000
vn 0.061700 0.998100 0.000000
vn -0.061700 0.998100 0.000000
vn 0.000000 -0.999000 -0.045500
vn 0.000000 -0.999100 0.042800
usemtl None
s off
f 2/1/1 3/2/1 6/3/1
f 7/4/2 5/5/2 4/6/2
f 8/7/3 9/8/3 10/9/3
f 2/10/4 10/11/4 11/12/4
f 3/13/5 11/14/5 12/15/5
f 4/16/6 12/17/6 9/18/6
f 13/19/7 9/20/7 15/21/7
f 16/22/8 14/23/8 12/24/8
f 1/25/5 13/26/5 15/27/5
f 7/28/4 15/29/4 14/30/4
f 6/31/6 16/32/6 13/33/6
f 5/34/3 14/35/3 16/36/3
f 83/37/3 19/38/3 18/39/3
f 84/40/6 18/41/6 17/42/6
f 82/43/4 20/44/4 19/45/4
f 81/46/5 17/47/5 20/48/5
f 85/49/3 22/50/3 21/51/3
f 86/52/6 21/53/6 24/54/6
f 88/55/4 23/56/4 22/57/4
f 87/58/5 24/59/5 23/60/5
f 98/61/3 27/62/3 26/63/3
f 99/64/6 26/65/6 25/66/6
f 97/67/4 28/68/4 27/69/4
f 100/70/5 25/71/5 28/72/5
f 94/73/3 29/74/3 32/75/3
f 95/76/6 32/77/6 31/78/6
f 93/79/4 30/80/4 29/81/4
f 96/82/5 31/83/5 30/84/5
f 78/85/3 34/86/3 33/87/3
f 79/88/6 33/89/6 36/90/6
f 77/91/4 35/92/4 34/93/4
f 80/94/5 36/95/5 35/96/5
f 92/97/3 37/98/3 40/99/3
f 89/100/6 40/101/6 39/102/6
f 91/103/4 38/104/4 37/105/4
f 90/106/5 39/107/5 38/108/5
f 51/109/9 52/109/9 65/110/9
f 53/111/9 67/112/9 71/113/9
f 111/114/10 112/115/10 120/116/10
f 130/117/10 119/118/10 129/117/10
f 50/119/5 110/120/5 132/121/5
f 51/122/4 132/123/4 131/124/4
f 53/125/6 111/126/6 110/127/6
f 52/128/3 131/129/3 111/130/3
f 46/131/5 108/132/5 134/133/5
f 47/134/4 134/135/4 133/136/4
f 49/137/6 109/138/6 108/139/6
f 48/140/3 133/141/3 109/142/3
f 42/143/5 106/144/5 136/145/5
f 43/146/4 136/147/4 135/148/4
f 45/149/6 107/150/6 106/151/6
f 44/152/3 135/153/3 107/154/3
f 68/155/5 122/156/5 124/157/5
f 69/158/4 124/159/4 123/160/4
f 41/161/6 105/162/6 122/163/6
f 70/164/3 123/165/3 105/166/3
f 54/167/5 112/168/5 130/169/5
f 55/170/4 130/171/4 129/172/4
f 57/173/6 113/174/6 112/175/6
f 56/176/3 129/177/3 113/178/3
f 58/179/5 114/180/5 128/181/5
f 59/182/4 128/183/4 127/184/4
f 61/185/6 115/186/6 114/187/6
f 60/188/3 127/189/3 115/190/3
f 62/191/5 116/192/5 126/193/5
f 63/194/4 126/195/4 118/196/4
f 72/197/6 117/198/6 116/199/6
f 64/200/3 118/201/3 117/202/3
f 121/203/3 67/204/3 66/205/3
f 125/206/6 66/207/6 65/208/6
f 120/209/4 71/210/4 67/211/4
f 119/212/5 65/213/5 71/214/5
f 103/215/3 75/216/3 74/217/3
f 104/218/6 74/219/6 73/220/6
f 102/221/4 76/222/4 75/223/4
f 101/224/5 73/225/5 76/226/5
f 4/227/11 5/228/11 6/3/11
f 6/3/1 1/229/1 2/1/1
f 3/2/11 4/227/11 6/3/11
f 8/230/12 2/231/12 1/232/12
f 7/4/2 4/6/2 8/230/2
f 8/230/12 1/232/12 7/4/12
f 2/233/3 8/7/3 10/9/3
f 3/234/4 2/10/4 11/12/4
f 4/235/5 3/13/5 12/15/5
f 8/236/6 4/16/6 9/18/6
f 12/237/13 14/238/13 15/21/13
f 9/20/7 13/19/7 10/239/7
f 9/20/13 12/237/13 15/21/13
f 16/22/14 10/240/14 13/241/14
f 16/22/8 12/24/8 11/242/8
f 11/242/14 10/240/14 16/22/14
f 7/243/5 1/25/5 15/27/5
f 5/244/4 7/28/4 14/30/4
f 1/245/6 6/31/6 13/33/6
f 6/246/3 5/34/3 16/36/3
f 84/247/3 83/37/3 18/39/3
f 81/248/6 84/40/6 17/42/6
f 83/249/4 82/43/4 19/45/4
f 82/250/5 81/46/5 20/48/5
f 86/251/3 85/49/3 21/51/3
f 87/252/6 86/52/6 24/54/6
f 85/253/4 88/55/4 22/57/4
f 88/254/5 87/58/5 23/60/5
f 99/255/3 98/61/3 26/63/3
f 100/256/6 99/64/6 25/66/6
f 98/257/4 97/67/4 27/69/4
f 97/258/5 100/70/5 28/72/5
f 95/259/3 94/73/3 32/75/3
f 96/260/6 95/76/6 31/78/6
f 94/261/4 93/79/4 29/81/4
f 93/262/5 96/82/5 30/84/5
f 79/263/3 78/85/3 33/87/3
f 80/264/6 79/88/6 36/90/6
f 78/265/4 77/91/4 34/93/4
f 77/266/5 80/94/5 35/96/5
f 89/267/3 92/97/3 40/99/3
f 90/268/6 89/100/6 39/102/6
f 92/269/4 91/103/4 37/105/4
f 91/270/5 90/106/5 38/108/5
f 67/271/9 68/272/9 69/273/9
f 70/274/9 41/275/9 42/276/9
f 66/277/9 67/271/9 69/273/9
f 70/274/9 42/276/9 43/278/9
f 66/277/9 69/273/9 70/274/9
f 51/109/9 65/110/9 66/277/9
f 61/109/9 62/109/9 63/109/9
f 63/109/9 64/279/9 65/110/9
f 66/277/9 70/274/9 43/278/9
f 44/109/9 45/109/9 46/109/9
f 66/277/9 43/278/9 44/109/9
f 60/109/9 61/109/9 63/109/9
f 44/109/9 46/109/9 47/109/9
f 60/109/9 63/109/9 65/110/9
f 66/277/9 44/109/9 47/109/9
f 48/109/9 49/109/9 50/109/9
f 66/277/9 47/109/9 48/109/9
f 59/109/9 60/109/9 65/110/9
f 57/109/9 58/109/9 59/109/9
f 53/109/9 54/109/9 55/109/9
f 56/109/9 57/109/9 59/109/9
f 52/109/9 53/109/9 55/109/9
f 65/110/9 56/109/9 59/109/9
f 48/109/9 50/109/9 51/109/9
f 55/109/9 56/109/9 65/110/9
f 66/277/9 48/109/9 51/109/9
f 65/110/9 52/109/9 55/109/9
f 67/112/9 42/280/9 41/281/9
f 67/112/9 46/282/9 45/283/9
f 67/112/9 50/284/9 49/285/9
f 71/113/9 54/286/9 53/111/9
f 71/113/9 58/287/9 57/288/9
f 71/113/9 62/289/9 61/290/9
f 71/113/9 64/291/9 72/292/9
f 57/288/9 54/286/9 71/113/9
f 71/113/9 65/293/9 64/291/9
f 71/113/9 61/290/9 58/287/9
f 67/112/9 53/111/9 50/284/9
f 67/112/9 45/283/9 42/280/9
f 41/281/9 68/294/9 67/112/9
f 71/113/9 72/292/9 62/289/9
f 67/112/9 49/285/9 46/282/9
f 121/295/10 122/296/10 105/297/10
f 118/298/10 119/299/10 120/116/10
f 106/300/10 121/295/10 105/297/10
f 121/295/10 106/300/10 107/301/10
f 121/295/10 108/302/10 109/303/10
f 121/295/10 110/304/10 111/114/10
f 120/116/10 112/115/10 113/305/10
f 120/116/10 114/306/10 115/307/10
f 120/116/10 116/308/10 117/309/10
f 117/309/10 118/298/10 120/116/10
f 108/302/10 121/295/10 107/301/10
f 121/295/10 109/303/10 110/304/10
f 120/116/10 113/305/10 114/306/10
f 115/307/10 116/308/10 120/116/10
f 120/116/10 121/295/10 111/114/10
f 136/310/10 106/311/10 105/312/10
f 108/313/10 107/314/10 135/315/10
f 136/310/10 105/312/10 123/316/10
f 134/117/10 108/313/10 135/315/10
f 125/317/10 136/310/10 123/316/10
f 124/318/10 122/319/10 121/320/10
f 125/317/10 123/316/10 124/318/10
f 125/317/10 134/117/10 135/315/10
f 110/321/10 109/321/10 133/117/10
f 112/321/10 111/321/10 131/117/10
f 132/117/10 110/321/10 133/117/10
f 130/117/10 112/321/10 131/117/10
f 125/317/10 132/117/10 133/117/10
f 125/317/10 135/315/10 136/310/10
f 124/318/10 121/320/10 125/317/10
f 126/322/10 119/118/10 118/323/10
f 126/322/10 116/324/10 115/325/10
f 127/326/10 119/118/10 126/322/10
f 133/117/10 134/117/10 125/317/10
f 125/317/10 131/117/10 132/117/10
f 114/327/10 113/321/10 129/117/10
f 119/118/10 130/117/10 131/117/10
f 126/322/10 115/325/10 127/326/10
f 119/118/10 131/117/10 125/317/10
f 128/117/10 119/118/10 127/326/10
f 128/117/10 114/327/10 129/117/10
f 129/117/10 119/118/10 128/117/10
f 51/328/5 50/119/5 132/121/5
f 52/329/4 51/122/4 131/124/4
f 50/330/6 53/125/6 110/127/6
f 53/331/3 52/128/3 111/130/3
f 47/332/5 46/131/5 134/133/5
f 48/333/4 47/134/4 133/136/4
f 46/334/6 49/137/6 108/139/6
f 49/335/3 48/140/3 109/142/3
f 43/336/5 42/143/5 136/145/5
f 44/337/4 43/146/4 135/148/4
f 42/338/6 45/149/6 106/151/6
f 45/339/3 44/152/3 107/154/3
f 69/340/5 68/155/5 124/157/5
f 70/341/4 69/158/4 123/160/4
f 68/342/6 41/161/6 122/163/6
f 41/343/3 70/164/3 105/166/3
f 55/344/5 54/167/5 130/169/5
f 56/345/4 55/170/4 129/172/4
f 54/346/6 57/173/6 112/175/6
f 57/347/3 56/176/3 113/178/3
f 59/348/5 58/179/5 128/181/5
f 60/349/4 59/182/4 127/184/4
f 58/350/6 61/185/6 114/187/6
f 61/351/3 60/188/3 115/190/3
f 63/352/5 62/191/5 126/193/5
f 64/353/4 63/194/4 118/196/4
f 62/354/6 72/197/6 116/199/6
f 72/355/3 64/200/3 117/202/3
f 125/356/3 121/203/3 66/205/3
f 119/357/6 125/206/6 65/208/6
f 121/358/4 120/209/4 67/211/4
f 120/359/5 119/212/5 71/214/5
f 104/360/3 103/215/3 74/217/3
f 101/361/6 104/218/6 73/220/6
f 103/362/4 102/221/4 75/223/4
f 102/363/5 101/224/5 76/226/5
